<svg xmlns="http://www.w3.org/2000/svg" width="100" height="101" viewBox="0 0 100 101" fill="none"><path d="M99.9959 50.0706C99.9966 40.515 97.259 31.1592 92.1072 23.1113C86.9555 15.0633 79.6053 8.66017 70.9271 4.66016C62.2489 0.660154 52.6062 -0.769206 43.1409 0.541322C33.6755 1.85185 24.784 5.84738 17.5191 12.0548C10.2542 18.2622 4.92019 26.4215 2.14886 35.5664C-0.622465 44.7114 -0.715099 54.459 1.8819 63.655C4.47889 72.851 9.65673 81.1102 16.8023 87.4546C23.9479 93.799 32.762 97.9628 42.2007 99.453V64.5023H29.4106V50.0706H42.0982V39.0588C42.0982 26.508 49.5534 19.5999 60.9756 19.5999C64.7213 19.6507 68.4586 19.9707 72.1585 20.5575V32.8689H65.866C64.782 32.7373 63.6823 32.8534 62.6497 33.2085C61.6171 33.5636 60.6785 34.1484 59.9048 34.9189C59.131 35.6894 58.5422 36.6254 58.1827 37.6565C57.8232 38.6876 57.7024 39.7868 57.8294 40.8713V50.2416H71.6797L69.4568 64.6733H57.8294V99.453C69.5856 97.5886 80.291 91.591 88.0205 82.5388C95.7499 73.4867 99.9963 61.9738 99.9959 50.0706Z" fill="black"></path><path d="M69.4567 64.5024L71.6796 50.0708H57.8293V40.8714C57.7271 39.7906 57.8701 38.7006 58.2477 37.6827C58.6253 36.6649 59.2276 35.7453 60.01 34.9926C60.7923 34.2398 61.7344 33.6733 62.766 33.3353C63.7977 32.9972 64.8924 32.8963 65.9685 33.04H72.2609V20.7286C68.5611 20.1418 64.8238 19.8218 61.0781 19.7711C49.6558 19.7711 42.2006 26.6107 42.2006 39.2299V50.2418H29.4105V64.6734H42.0981V99.4531C47.2753 100.274 52.5495 100.274 57.7267 99.4531V64.5024H69.4567Z" fill="white"></path></svg>