<svg xmlns="http://www.w3.org/2000/svg" width="101" height="101" viewBox="0 0 101 101" fill="none"><path d="M50.9959 100.09C78.6101 100.09 100.996 77.7043 100.996 50.09C100.996 22.4758 78.6101 0.0900269 50.9959 0.0900269C23.3816 0.0900269 0.99585 22.4758 0.99585 50.09C0.99585 77.7043 23.3816 100.09 50.9959 100.09Z" fill="black"></path><path d="M66.4199 31.1775C65.7435 31.1775 65.0823 31.3781 64.5199 31.7539C63.9575 32.1296 63.5191 32.6638 63.2603 33.2887C63.0014 33.9136 62.9337 34.6013 63.0656 35.2647C63.1976 35.9281 63.5233 36.5375 64.0016 37.0158C64.4799 37.494 65.0893 37.8198 65.7527 37.9517C66.4161 38.0837 67.1038 38.0159 67.7287 37.7571C68.3536 37.4982 68.8877 37.0599 69.2635 36.4975C69.6393 35.9351 69.8399 35.2739 69.8399 34.5975C69.8399 33.6904 69.4796 32.8205 68.8382 32.1792C68.1968 31.5378 67.327 31.1775 66.4199 31.1775Z" fill="white"></path><path d="M51.2352 35.5892C48.3822 35.5959 45.5953 36.4481 43.2264 38.0381C40.8575 39.628 39.013 41.8844 37.9259 44.5221C36.8388 47.1599 36.5579 50.0606 37.1186 52.858C37.6793 55.6553 39.0565 58.2237 41.0763 60.2387C43.096 62.2536 45.6677 63.6248 48.4664 64.1789C51.265 64.733 54.1651 64.4452 56.8002 63.3518C59.4354 62.2585 61.6874 60.4087 63.2717 58.036C64.856 55.6634 65.7016 52.8744 65.7016 50.0214C65.6926 46.1906 64.1645 42.5198 61.4525 39.8142C58.7404 37.1086 55.066 35.5892 51.2352 35.5892ZM51.2352 59.2554C49.4007 59.2554 47.6074 58.7109 46.0826 57.691C44.5577 56.6711 43.3698 55.2216 42.6693 53.5261C41.9689 51.8305 41.7873 49.9653 42.1477 48.1665C42.5081 46.3678 43.3942 44.7164 44.6938 43.4216C45.9934 42.1268 47.648 41.2468 49.4481 40.8931C51.2482 40.5393 53.1128 40.7277 54.8057 41.4345C56.4986 42.1412 57.9437 43.3344 58.958 44.8631C59.9722 46.3917 60.5101 48.1869 60.5033 50.0214C60.5033 51.2369 60.2633 52.4405 59.7972 53.563C59.331 54.6856 58.6478 55.7051 57.7867 56.5629C56.9256 57.4208 55.9036 58.1003 54.7793 58.5623C53.6551 59.0244 52.4507 59.2599 51.2352 59.2554Z" fill="white"></path><path d="M62.6921 79.3307H39.2995C34.6311 79.3216 30.1564 77.4631 26.8553 74.162C23.5542 70.8609 21.6957 66.3863 21.6866 61.7178V38.291C21.6957 33.6257 23.5553 29.1546 26.8574 25.8589C30.1595 22.5633 34.6342 20.7123 39.2995 20.7123H62.6921C67.3574 20.7123 71.8321 22.5633 75.1342 25.8589C78.4363 29.1546 80.2959 33.6257 80.305 38.291V61.7178C80.2959 66.3863 78.4374 70.8609 75.1363 74.162C71.8352 77.4631 67.3606 79.3216 62.6921 79.3307ZM39.2995 26.2185C36.0946 26.2185 33.0203 27.4893 30.7509 29.7524C28.4814 32.0154 27.2019 35.086 27.1928 38.291V61.7178C27.2018 64.9259 28.4803 68.0001 30.7488 70.2686C33.0173 72.5371 36.0914 73.8155 39.2995 73.8245H62.6921C65.903 73.8245 68.9824 72.549 71.2529 70.2785C73.5233 68.0081 74.7988 64.9287 74.7988 61.7178V38.291C74.7988 36.7027 74.4854 35.1301 73.8766 33.6631C73.2678 32.1962 72.3754 30.8638 71.2508 29.7423C70.1261 28.6209 68.7912 27.7323 67.3226 27.1276C65.8539 26.5229 64.2804 26.214 62.6921 26.2185H39.2995Z" fill="white"></path></svg>