<svg xmlns="http://www.w3.org/2000/svg" width="101" height="101" viewBox="0 0 101 101" fill="none"><path d="M50.9961 100.09C78.6103 100.09 100.996 77.7043 100.996 50.09C100.996 22.4758 78.6103 0.0900269 50.9961 0.0900269C23.3818 0.0900269 0.995972 22.4758 0.995972 50.09C0.995972 77.7043 23.3818 100.09 50.9961 100.09Z" fill="black"></path><path d="M76.8168 44.2419H75.2777C72.5021 44.2418 69.7703 43.5508 67.3283 42.2314C64.8864 40.9119 62.8112 39.0054 61.2901 36.6838V62.402C61.2901 66.1628 60.1749 69.8391 58.0855 72.9661C55.9961 76.0932 53.0263 78.5304 49.5517 79.9696C46.0772 81.4088 42.254 81.7853 38.5654 81.0516C34.8769 80.3179 31.4886 78.5069 28.8293 75.8476C26.17 73.1883 24.3591 69.8002 23.6254 66.1116C22.8917 62.423 23.2683 58.5998 24.7075 55.1252C26.1467 51.6507 28.5839 48.6809 31.7109 46.5915C34.8379 44.5021 38.5142 43.3869 42.275 43.3869H43.472V52.7576C43.0737 52.7242 42.6733 52.7242 42.275 52.7576C39.699 52.7576 37.2286 53.7809 35.4071 55.6024C33.5856 57.4239 32.5623 59.8944 32.5623 62.4704C32.5623 65.0463 33.5856 67.5168 35.4071 69.3383C37.2286 71.1598 39.699 72.1831 42.275 72.1831C44.8741 72.2206 47.3849 71.2398 49.2703 69.4503C51.1556 67.6608 52.266 65.2047 52.364 62.6071V18.8999H61.3243C61.7035 22.8409 63.4685 26.5195 66.3054 29.2813C69.1423 32.043 72.867 33.7087 76.8168 33.982V44.2419Z" fill="white"></path></svg>