<svg xmlns="http://www.w3.org/2000/svg" width="100" height="100" viewBox="0 0 100 100" fill="none"><path d="M50 100C77.6143 100 100 77.6143 100 50C100 22.3858 77.6143 0 50 0C22.3858 0 0 22.3858 0 50C0 77.6143 22.3858 100 50 100Z" fill="black"></path><path d="M76.7784 42.7496C76.7784 39.5628 75.5148 36.5059 73.2645 34.2493C71.0143 31.9927 67.9611 30.7204 64.7743 30.7113H33.9945C30.8077 30.7204 27.7545 31.9927 25.5043 34.2493C23.254 36.5059 21.9904 39.5628 21.9904 42.7496V57.0109C21.9904 58.5873 22.3009 60.1483 22.9042 61.6047C23.5074 63.0611 24.3916 64.3844 25.5063 65.4991C26.621 66.6138 27.9443 67.498 29.4007 68.1012C30.8571 68.7045 32.4181 69.015 33.9945 69.015H64.7743C66.3507 69.015 67.9116 68.7045 69.368 68.1012C70.8244 67.498 72.1478 66.6138 73.2625 65.4991C74.3771 64.3844 75.2613 63.0611 75.8646 61.6047C76.4679 60.1483 76.7784 58.5873 76.7784 57.0109V42.7496ZM58.5841 50.9575L44.9042 57.7975C44.357 58.0711 42.5103 57.7975 42.5103 57.0793V43.0574C42.5103 42.4418 44.357 42.0656 44.9042 42.3734L58.0711 49.5212C58.5841 49.8632 59.2681 50.6497 58.5841 50.9575Z" fill="white"></path></svg>